<?xml version="1.0" encoding="utf-8"?>
<svg xmlns="http://www.w3.org/2000/svg" viewBox="1304.63 543.438 601.5699 548.652" width="601.57px" height="548.652px">
  <path d="M 1426.27 543.438 L 1441.33 543.438 L 1457.5 544.908 L 1507.48 550.053 L 1616.99 561.445 L 1633.53 563.282 L 1643.82 564.752 L 1656.31 566.957 L 1670.64 570.264 L 1686.08 574.674 L 1700.04 579.451 L 1711.8 584.229 L 1719.15 587.536 L 1728.34 591.946 L 1736.42 595.988 L 1744.88 600.765 L 1755.53 607.012 L 1761.04 610.32 L 1770.6 615.832 L 1779.79 621.344 L 1789.71 627.224 L 1798.53 632.369 L 1810.29 639.351 L 1819.47 644.863 L 1829.03 650.375 L 1836.38 654.786 L 1844.46 659.563 L 1853.28 664.708 L 1862.47 670.22 L 1872.39 676.835 L 1878.27 681.244 L 1883.05 685.654 L 1886.72 689.696 L 1894.07 700.721 L 1898.48 708.438 L 1902.16 717.258 L 1904.73 726.445 L 1906.2 736 L 1906.2 751.801 L 1905.1 760.621 L 1902.89 770.543 L 1899.95 780.465 L 1892.23 803.617 L 1887.09 819.418 L 1882.68 832.648 L 1876.8 850.654 L 1869.82 871.968 L 1865.04 886.668 L 1860.63 899.897 L 1851.08 928.928 L 1846.3 943.628 L 1841.89 956.857 L 1834.54 979.273 L 1829.76 993.973 L 1824.62 1009.04 L 1820.21 1018.96 L 1815.43 1027.41 L 1811.02 1034.03 L 1806.61 1039.91 L 1801.47 1045.42 L 1795.95 1050.93 L 1791.91 1054.24 L 1785.3 1059.02 L 1777.21 1063.79 L 1770.23 1067.1 L 1760.31 1070.78 L 1751.12 1073.35 L 1741.57 1075.19 L 1722.46 1077.02 L 1648.96 1082.9 L 1538.35 1091.72 L 1525.86 1092.09 L 1513.73 1091.36 L 1503.44 1089.88 L 1493.15 1087.68 L 1484.33 1085.11 L 1476.24 1082.17 L 1467.42 1078.13 L 1461.18 1074.82 L 1454.2 1070.41 L 1447.21 1065.63 L 1440.97 1060.49 L 1435.82 1056.08 L 1432.88 1053.14 L 1429.94 1050.57 L 1421.86 1041.75 L 1419.29 1038.81 L 1415.24 1034.4 L 1411.57 1030.35 L 1408.99 1027.41 L 1405.32 1023.37 L 1402.75 1020.43 L 1398.34 1015.65 L 1391.72 1008.3 L 1389.15 1005.37 L 1385.11 1000.96 L 1378.49 993.605 L 1375.92 990.665 L 1371.88 986.256 L 1365.27 978.906 L 1361.59 974.864 L 1359.02 971.924 L 1354.97 967.514 L 1352.4 964.574 L 1347.99 959.797 L 1345.42 956.857 L 1341.38 952.447 L 1338.81 949.507 L 1334.03 943.995 L 1329.25 937.748 L 1324.84 931.133 L 1320.43 923.784 L 1315.29 913.861 L 1311.61 904.674 L 1308.67 895.487 L 1306.47 885.933 L 1305 875.643 L 1304.63 871.233 L 1304.63 853.227 L 1305.37 845.51 L 1306.84 835.955 L 1310.88 816.846 L 1316.02 794.062 L 1324.47 756.211 L 1331.82 723.138 L 1337.7 697.046 L 1345.42 662.135 L 1349.83 642.291 L 1353.14 627.959 L 1356.81 611.055 L 1359.38 601.5 L 1362.69 592.313 L 1367.1 583.126 L 1371.14 576.511 L 1375.92 570.264 L 1379.96 565.854 L 1384.74 561.077 L 1391.72 555.932 L 1399.44 551.523 L 1408.99 547.48 L 1418.18 544.54 L 1426.27 543.438 Z M 1464.48 587.903 L 1470.73 592.313 L 1477.35 597.09 L 1484.33 602.235 L 1550.48 650.008 L 1557.83 654.786 L 1566.64 659.93 L 1575.83 664.34 L 1584.29 668.015 L 1594.21 671.69 L 1604.13 674.63 L 1613.32 676.835 L 1623.61 678.672 L 1636.84 680.142 L 1809.55 690.431 L 1816.53 690.799 L 1816.17 690.064 L 1809.92 686.022 L 1800.37 680.509 L 1790.44 674.63 L 1784.93 671.322 L 1766.19 660.298 L 1760.68 656.991 L 1741.93 645.966 L 1731.28 639.718 L 1722.09 634.206 L 1711.07 628.326 L 1705.19 625.387 L 1695.26 620.977 L 1684.97 616.934 L 1671.75 612.525 L 1659.99 609.217 L 1646.76 606.277 L 1633.53 604.073 L 1614.42 601.868 L 1518.51 591.946 L 1468.53 586.801 L 1463.02 586.433 L 1464.48 587.903 Z M 1404.95 600.398 L 1402.38 603.338 L 1400.18 607.38 L 1397.24 616.2 L 1394.3 629.061 L 1384.01 674.997 L 1377.02 706.601 L 1368.94 742.614 L 1360.86 778.995 L 1353.87 810.231 L 1346.89 841.835 L 1345.42 850.654 L 1344.69 859.107 L 1344.69 865.721 L 1345.05 871.233 L 1346.52 880.421 L 1349.1 889.608 L 1352.77 898.795 L 1356.44 905.409 L 1360.12 911.289 L 1364.16 916.801 L 1367.1 920.476 L 1370.41 924.151 L 1374.45 928.561 L 1377.02 931.501 L 1383.64 938.85 L 1387.68 943.26 L 1390.25 946.2 L 1394.66 950.977 L 1397.24 953.917 L 1400.91 957.959 L 1403.48 960.899 L 1407.53 965.309 L 1414.14 972.659 L 1416.71 975.599 L 1421.12 980.376 L 1424.43 984.051 L 1427 986.991 L 1433.62 994.34 L 1437.66 998.75 L 1440.97 1002.42 L 1443.54 1005.37 L 1447.21 1009.41 L 1453.83 1016.76 L 1458.24 1021.53 L 1463.75 1026.68 L 1468.89 1030.35 L 1469.63 1029.99 L 1471.84 1025.94 L 1474.04 1020.06 L 1477.35 1008.3 L 1483.96 983.316 L 1490.21 960.164 L 1497.93 930.766 L 1507.48 895.12 L 1516.3 861.679 L 1524.38 831.545 L 1534.31 794.062 L 1538.35 778.628 L 1542.39 763.928 L 1547.17 745.554 L 1548.64 738.205 L 1549.37 731.957 L 1549.37 723.873 L 1548.64 717.993 L 1547.17 711.746 L 1544.96 705.499 L 1541.66 699.251 L 1537.98 694.106 L 1534.67 690.064 L 1532.1 687.492 L 1528.43 684.184 L 1524.38 680.877 L 1518.51 676.467 L 1472.2 643.026 L 1465.22 637.881 L 1458.97 633.471 L 1451.99 628.326 L 1425.53 609.217 L 1419.65 605.175 L 1413.4 601.868 L 1408.99 600.398 L 1405.69 600.03 L 1404.95 600.398 Z M 1620.3 721.3 L 1613.32 723.138 L 1607.44 725.71 L 1601.92 729.385 L 1599.35 731.957 L 1596.04 735.632 L 1593.1 739.675 L 1589.06 747.392 L 1586.12 755.476 L 1575.1 796.634 L 1571.06 812.069 L 1565.54 832.648 L 1558.56 858.739 L 1548.64 896.222 L 1541.29 923.784 L 1536.14 943.26 L 1532.1 958.694 L 1527.33 976.334 L 1517.4 1013.45 L 1513.36 1029.62 L 1512.26 1037.7 L 1512.26 1042.11 L 1513.36 1046.52 L 1515.2 1048.73 L 1518.87 1050.2 L 1525.12 1051.3 L 1534.67 1051.3 L 1581.35 1047.63 L 1691.22 1038.81 L 1731.64 1035.5 L 1741.2 1034.03 L 1749.65 1031.82 L 1757 1028.88 L 1762.15 1025.94 L 1768.03 1021.9 L 1774.64 1015.29 L 1778.68 1010.14 L 1781.99 1004.63 L 1784.93 998.75 L 1788.61 989.563 L 1794.85 970.454 L 1803.3 944.73 L 1808.45 928.928 L 1814.7 910.187 L 1819.84 894.385 L 1828.66 867.559 L 1839.68 834.118 L 1844.1 820.888 L 1854.38 789.285 L 1861.73 766.868 L 1864.31 758.049 L 1865.41 751.801 L 1865.41 744.819 L 1864.31 741.144 L 1861.37 737.837 L 1856.22 735.265 L 1849.24 733.427 L 1838.58 732.325 L 1641.61 720.565 L 1625.44 720.565 L 1620.3 721.3 Z" fill="#010101" style="stroke-width: 1;"/>
</svg>